<svg id="Layer_1" viewBox="0 0 24 24" xmlns="http://www.w3.org/2000/svg" data-name="Layer 1"><path d="m12.005 3.38a4.5 4.5 0 1 0 4.5 4.5 4.5 4.5 0 0 0 -4.5-4.5z" fill="none"/><path d="m12.005.76a7.156 7.156 0 0 0 -5.04 12.2l.58.58a12.689 12.689 0 0 1 3.6 7.09.87.87 0 0 0 1.72 0 12.738 12.738 0 0 1 3.59-7.09l.58-.58a7.064 7.064 0 0 0 2.09-5.04 7.138 7.138 0 0 0 -7.12-7.16zm0 12.36a5.245 5.245 0 1 1 5.25-5.24 5.247 5.247 0 0 1 -5.25 5.24z" fill="#ea3139"/><path d="m12.005 2.63a5.245 5.245 0 1 0 5.25 5.25 5.249 5.249 0 0 0 -5.25-5.25zm0 9.74a4.5 4.5 0 1 1 4.5-4.49 4.5 4.5 0 0 1 -4.5 4.49z"/><path d="m8.9 19.27a.385.385 0 0 0 .19-.5.38.38 0 0 0 -.5-.19 2.813 2.813 0 0 0 -1.93 2.36c0 1.72 2.35 3.06 5.34 3.06s5.33-1.34 5.33-3.06a2.817 2.817 0 0 0 -1.92-2.36.377.377 0 0 0 -.5.19.381.381 0 0 0 .18.5c.95.43 1.49 1.04 1.49 1.67 0 1.25-2.1 2.3-4.58 2.3s-4.58-1.05-4.58-2.3c.005-.63.545-1.23 1.48-1.67z"/><path d="m19.875 7.88a7.875 7.875 0 1 0 -15.75.04 7.8 7.8 0 0 0 2.31 5.57l.58.58a11.937 11.937 0 0 1 3.38 6.68 1.629 1.629 0 0 0 3.22 0 11.937 11.937 0 0 1 3.385-6.68l.58-.58a7.811 7.811 0 0 0 2.295-5.61zm-3.42 5.66a12.738 12.738 0 0 0 -3.59 7.09.87.87 0 0 1 -1.72 0 12.689 12.689 0 0 0 -3.6-7.09l-.58-.58a7.125 7.125 0 1 1 10.07 0z"/></svg>